<?xml version="1.0" encoding="iso-8859-1"?>
<!-- Uploaded to: SVG Repo, www.svgrepo.com, Generator: SVG Repo Mixer Tools -->
<svg height="800px" width="800px" version="1.1" id="Capa_1" xmlns="http://www.w3.org/2000/svg" xmlns:xlink="http://www.w3.org/1999/xlink" 
	 viewBox="0 0 406.48 406.48" xml:space="preserve">
<g>
	<g id="XMLID_22_">
		<g>
			<path style="fill:#333333;" d="M369.15,272.57c1.88,1.19,3.02,3.26,3.02,5.49s-1.14,4.31-3.02,5.5
				c-24.02,15.16-52.03,23.59-80.38,24.42c6.3,6.98,11.69,14.75,16.08,23.23c1.03,1.98,0.97,4.35-0.16,6.27
				c-1.12,1.93-3.16,3.14-5.39,3.22c-1.22,0.04-2.44,0.06-3.65,0.06c-33.49,0-65.13-15.43-85.91-41v63.61c0,3.59-2.91,6.5-6.5,6.5
				c-3.59,0-6.5-2.91-6.5-6.5v-63.61c-20.79,25.57-52.43,41-85.92,41c-1.21,0-2.43-0.02-3.65-0.06c-2.23-0.08-4.26-1.29-5.39-3.22
				c-1.13-1.92-1.19-4.29-0.16-6.27c4.39-8.47,9.76-16.23,16.05-23.2c-28.46-0.73-55.95-9.04-80.34-24.45
				c-1.89-1.19-3.03-3.27-3.03-5.5s1.14-4.3,3.03-5.49c25.39-16.04,54.67-24.52,84.69-24.52c1.06,0,2.11,0.02,3.17,0.04
				c-34.51-27.1-59.15-65.56-68.98-108.69c-0.49-2.18,0.16-4.45,1.74-6.04c1.57-1.58,3.85-2.24,6.02-1.75
				c35.56,7.96,67.98,25.74,93.78,51.43c1.95,1.94,3.85,3.93,5.72,5.96c-1.67-11.42-2.53-22.99-2.53-34.64
				c0-45.08,12.73-89.06,36.8-127.17c1.19-1.88,3.27-3.03,5.5-3.03c2.23,0,4.3,1.15,5.49,3.03c24.08,38.11,36.8,82.09,36.8,127.17
				c0,11.65-0.85,23.22-2.53,34.64c1.87-2.03,3.78-4.02,5.73-5.96c25.79-25.69,58.22-43.47,93.77-51.43
				c2.17-0.49,4.45,0.17,6.03,1.75c1.57,1.59,2.22,3.86,1.73,6.04c-9.83,43.13-34.47,81.59-68.97,108.69
				c1.05-0.02,2.11-0.04,3.16-0.04C314.47,248.05,343.76,256.53,369.15,272.57z M352.74,278.07
				c-20.99-11.16-44.39-17.02-68.29-17.02c-8.67,0-17.33,0.79-25.78,2.32c-12.13,6.99-24.96,12.62-38.29,16.81
				c16.32,7.99,34.09,12.92,52.17,14.39c0.13,0.01,0.26,0.03,0.39,0.04C300.89,296.82,328.26,291.12,352.74,278.07z M253.15,251.56
				c39.56-23.12,68.9-60.84,81.71-104.59c-29.04,8.36-55.47,23.87-76.96,45.28c-7.64,7.61-14.61,15.94-20.75,24.78
				c-4.79,17.55-11.58,34.53-20.3,50.63C229.5,263.65,241.66,258.27,253.15,251.56z M287.51,327.41
				c-5.06-7.51-11.13-14.22-18.12-20.08c-15.74-1.5-31.24-5.39-45.87-11.47C240,313.88,262.92,325.33,287.51,327.41z M232.53,154.36
				c0-39.05-10.09-77.22-29.29-111.05c-19.2,33.83-29.3,72-29.3,111.05s10.1,77.22,29.3,111.05
				C222.44,231.58,232.53,193.41,232.53,154.36z M189.62,267.66c-8.71-16.1-15.51-33.08-20.29-50.62
				c-6.14-8.85-13.12-17.19-20.76-24.79c-21.49-21.4-47.92-36.92-76.96-45.28c12.82,43.75,42.15,81.47,81.71,104.59
				C164.81,258.27,176.97,263.65,189.62,267.66z M186.09,280.18c-13.33-4.19-26.15-9.82-38.29-16.81
				c-8.45-1.53-17.11-2.32-25.78-2.32c-23.9,0-47.3,5.86-68.29,17.02c24.49,13.05,51.85,18.75,79.8,16.54
				c0.13-0.01,0.26-0.03,0.39-0.04C152,293.1,169.77,288.17,186.09,280.18z M182.95,295.86c-14.62,6.08-30.13,9.97-45.87,11.47
				c-6.98,5.86-13.06,12.57-18.12,20.08C143.56,325.33,166.47,313.88,182.95,295.86z"/>
			<path style="fill:#333333;" d="M203.24,0.25c111.93,0,202.99,91.06,202.99,202.99s-91.06,202.99-202.99,202.99
				S0.25,315.17,0.25,203.24S91.31,0.25,203.24,0.25z M393.23,203.24c0-104.76-85.23-189.99-189.99-189.99S13.25,98.48,13.25,203.24
				s85.23,189.99,189.99,189.99S393.23,308,393.23,203.24z"/>
			<path style="fill:#EAC93F;" d="M203.24,13.25c104.76,0,189.99,85.23,189.99,189.99S308,393.23,203.24,393.23
				S13.25,308,13.25,203.24S98.48,13.25,203.24,13.25z M372.17,278.06c0-2.23-1.14-4.3-3.02-5.49
				c-25.39-16.04-54.68-24.52-84.7-24.52c-1.05,0-2.11,0.02-3.16,0.04c34.5-27.1,59.14-65.56,68.97-108.69
				c0.49-2.18-0.16-4.45-1.73-6.04c-1.58-1.58-3.86-2.24-6.03-1.75c-35.55,7.96-67.98,25.74-93.77,51.43
				c-1.95,1.94-3.86,3.93-5.73,5.96c1.68-11.42,2.53-22.99,2.53-34.64c0-45.08-12.72-89.06-36.8-127.17
				c-1.19-1.88-3.26-3.03-5.49-3.03c-2.23,0-4.31,1.15-5.5,3.03c-24.07,38.11-36.8,82.09-36.8,127.17c0,11.65,0.86,23.22,2.53,34.64
				c-1.87-2.03-3.77-4.02-5.72-5.96c-25.8-25.69-58.22-43.47-93.78-51.43c-2.17-0.49-4.45,0.17-6.02,1.75
				c-1.58,1.59-2.23,3.86-1.74,6.04c9.83,43.13,34.47,81.59,68.98,108.69c-1.06-0.02-2.11-0.04-3.17-0.04
				c-30.02,0-59.3,8.48-84.69,24.52c-1.89,1.19-3.03,3.26-3.03,5.49s1.14,4.31,3.03,5.5c24.39,15.41,51.88,23.72,80.34,24.45
				c-6.29,6.97-11.66,14.73-16.05,23.2c-1.03,1.98-0.97,4.35,0.16,6.27c1.13,1.93,3.16,3.14,5.39,3.22
				c1.22,0.04,2.44,0.06,3.65,0.06c33.49,0,65.13-15.43,85.92-41v63.61c0,3.59,2.91,6.5,6.5,6.5c3.59,0,6.5-2.91,6.5-6.5v-63.61
				c20.78,25.57,52.42,41,85.91,41c1.21,0,2.43-0.02,3.65-0.06c2.23-0.08,4.27-1.29,5.39-3.22c1.13-1.92,1.19-4.29,0.16-6.27
				c-4.39-8.48-9.78-16.25-16.08-23.23c28.35-0.83,56.36-9.26,80.38-24.42C371.03,282.37,372.17,280.29,372.17,278.06z"/>
			<path style="fill:#64BF9C;" d="M284.45,261.05c23.9,0,47.3,5.86,68.29,17.02c-24.48,13.05-51.85,18.75-79.8,16.54
				c-0.13-0.01-0.26-0.03-0.39-0.04c-18.08-1.47-35.85-6.4-52.17-14.39c13.33-4.19,26.16-9.82,38.29-16.81
				C267.12,261.84,275.78,261.05,284.45,261.05z"/>
			<path style="fill:#64BF9C;" d="M334.86,146.97c-12.81,43.75-42.15,81.47-81.71,104.59c-11.49,6.71-23.65,12.09-36.3,16.1
				c8.72-16.1,15.51-33.08,20.3-50.63c6.14-8.84,13.11-17.17,20.75-24.78C279.39,170.84,305.82,155.33,334.86,146.97z"/>
			<path style="fill:#64BF9C;" d="M269.39,307.33c6.99,5.86,13.06,12.57,18.12,20.08c-24.59-2.08-47.51-13.53-63.99-31.55
				C238.15,301.94,253.65,305.83,269.39,307.33z"/>
			<path style="fill:#64BF9C;" d="M203.24,43.31c19.2,33.83,29.29,72,29.29,111.05s-10.09,77.22-29.29,111.05
				c-19.2-33.83-29.3-72-29.3-111.05S184.04,77.14,203.24,43.31z"/>
			<path style="fill:#64BF9C;" d="M169.33,217.04c4.78,17.54,11.58,34.52,20.29,50.62c-12.65-4.01-24.81-9.39-36.3-16.1
				c-39.56-23.12-68.89-60.84-81.71-104.59c29.04,8.36,55.47,23.88,76.96,45.28C156.21,199.85,163.19,208.19,169.33,217.04z"/>
			<path style="fill:#64BF9C;" d="M147.8,263.37c12.14,6.99,24.96,12.62,38.29,16.81c-16.32,7.99-34.09,12.92-52.17,14.39
				c-0.13,0.01-0.26,0.03-0.39,0.04c-27.95,2.21-55.31-3.49-79.8-16.54c20.99-11.16,44.39-17.02,68.29-17.02
				C130.69,261.05,139.35,261.84,147.8,263.37z"/>
			<path style="fill:#64BF9C;" d="M137.08,307.33c15.74-1.5,31.25-5.39,45.87-11.47c-16.48,18.02-39.39,29.47-63.99,31.55
				C124.02,319.9,130.1,313.19,137.08,307.33z"/>
		</g>
		<g>
		</g>
	</g>
</g>
</svg>